<?xml version="1.0" encoding="UTF-8" standalone="no"?>
<!DOCTYPE svg PUBLIC "-//W3C//DTD SVG 1.1//EN" "http://www.w3.org/Graphics/SVG/1.1/DTD/svg11.dtd">
<svg width="100%" height="100%" viewBox="0 0 20 19" version="1.1" xmlns="http://www.w3.org/2000/svg" xmlns:xlink="http://www.w3.org/1999/xlink" xml:space="preserve" xmlns:serif="http://www.serif.com/" style="fill-rule:evenodd;clip-rule:evenodd;stroke-linejoin:round;stroke-miterlimit:2;">
    <g transform="matrix(1,0,0,1,-0.5,-0.5)">
        <g transform="matrix(1,0,0,1,-1.5,-2.4975)">
            <path d="M20.71,4.63L19.37,3.29C19,2.9 18.35,2.9 17.96,3.29L9,12.25L11.75,15L20.71,6.04C21.1,5.65 21.1,5 20.71,4.63M7,14C5.354,14 4,15.354 4,17C4,18.31 2.84,19 2,19C2.92,20.22 4.5,21 6,21C8.194,21 10,19.194 10,17C10,15.354 8.646,14 7,14Z" style="fill:white;fill-rule:nonzero;"/>
        </g>
    </g>
</svg>
