<?xml version="1.0" encoding="UTF-8" standalone="no"?>
<!DOCTYPE svg PUBLIC "-//W3C//DTD SVG 1.1//EN" "http://www.w3.org/Graphics/SVG/1.1/DTD/svg11.dtd">
<svg width="100%" height="100%" viewBox="0 0 20 18" version="1.1" xmlns="http://www.w3.org/2000/svg" xmlns:xlink="http://www.w3.org/1999/xlink" xml:space="preserve" xmlns:serif="http://www.serif.com/" style="fill-rule:evenodd;clip-rule:evenodd;stroke-linejoin:round;stroke-miterlimit:2;">
    <g transform="matrix(1,0,0,1,-0.5,-0.5)">
        <g transform="matrix(1,0,0,1,-1.5,-2.5)">
            <path d="M20,19L20,7L4,7L4,19L20,19M20,3C21.097,3 22,3.903 22,5L22,19C22,20.097 21.097,21 20,21L4,21C2.903,21 2,20.097 2,19L2,5C2,3.89 2.9,3 4,3L20,3M13,17L13,15L18,15L18,17L13,17M9.58,13L5.57,9L8.4,9L11.7,12.3C12.09,12.69 12.09,13.33 11.7,13.72L8.42,17L5.59,17L9.58,13Z" style="fill:white;fill-rule:nonzero;"/>
        </g>
    </g>
</svg>
