<?xml version="1.0" encoding="UTF-8" standalone="no"?>
<!DOCTYPE svg PUBLIC "-//W3C//DTD SVG 1.1//EN" "http://www.w3.org/Graphics/SVG/1.1/DTD/svg11.dtd">
<svg width="100%" height="100%" viewBox="0 0 24 24" version="1.1" xmlns="http://www.w3.org/2000/svg" xmlns:xlink="http://www.w3.org/1999/xlink" xml:space="preserve" xmlns:serif="http://www.serif.com/" style="fill-rule:evenodd;clip-rule:evenodd;stroke-linejoin:round;stroke-miterlimit:2;">
    <g transform="matrix(1,0,0,1,-428,-15)">
        <g transform="matrix(0.5,0,0,0.5,214,7.5)">
            <path d="M452,15C438.75,15 428,25.751 428,39C428,52.25 438.75,63 452,63C465.22,63 476,52.25 476,39C476,25.751 465.22,15 452,15ZM467.85,26.063C470.72,29.551 472.43,34.002 472.49,38.818C471.81,38.688 465.04,37.308 458.22,38.167C458.07,37.829 457.93,37.464 457.78,37.1C457.36,36.111 456.89,35.096 456.43,34.132C463.97,31.061 467.41,26.636 467.85,26.063ZM452,18.54C457.21,18.54 461.97,20.492 465.59,23.694C465.22,24.215 462.13,28.354 454.84,31.087C451.48,24.918 447.76,19.868 447.18,19.087C448.72,18.722 450.33,18.54 452,18.54ZM443.28,20.466C443.83,21.195 447.47,26.271 450.88,32.31C441.3,34.861 432.84,34.809 431.93,34.809C433.26,28.458 437.55,23.174 443.28,20.466ZM431.49,39.026L431.49,38.401C432.37,38.427 442.32,38.558 452.55,35.486C453.15,36.631 453.69,37.803 454.21,38.974C453.95,39.052 453.67,39.13 453.41,39.208C442.84,42.618 437.21,51.937 436.75,52.718C433.49,49.1 431.49,44.284 431.49,39.026ZM452,59.512C447.26,59.512 442.89,57.898 439.43,55.191C439.79,54.436 443.96,46.419 455.51,42.384C455.57,42.358 455.59,42.358 455.64,42.332C458.53,49.803 459.71,56.076 460.02,57.872C457.54,58.939 454.84,59.512 452,59.512ZM463.43,55.998C463.22,54.748 462.13,48.761 459.44,41.395C465.87,40.38 471.5,42.046 472.2,42.28C471.31,47.981 468.03,52.9 463.43,55.998Z" style="fill:white;"/>
        </g>
    </g>
</svg>
