<?xml version="1.0" encoding="UTF-8" standalone="no"?>
<!DOCTYPE svg PUBLIC "-//W3C//DTD SVG 1.1//EN" "http://www.w3.org/Graphics/SVG/1.1/DTD/svg11.dtd">
<svg width="100%" height="100%" viewBox="0 0 24 25" version="1.1" xmlns="http://www.w3.org/2000/svg" xmlns:xlink="http://www.w3.org/1999/xlink" xml:space="preserve" xmlns:serif="http://www.serif.com/" style="fill-rule:evenodd;clip-rule:evenodd;stroke-linejoin:round;stroke-miterlimit:2;">
    <g transform="matrix(1,0,0,1,-93.0747,-17.0605)">
        <g transform="matrix(0.500292,0,0,0.500292,39.5435,9.55609)">
            <g>
                <path d="M131,19.322C137.413,19.322 138.172,19.35 140.694,19.462C143.038,19.566 144.303,19.959 145.147,20.288C146.263,20.719 147.069,21.244 147.903,22.078C148.747,22.922 149.263,23.719 149.694,24.834C150.022,25.678 150.416,26.953 150.519,29.288C150.631,31.819 150.659,32.578 150.659,38.981C150.659,45.394 150.631,46.153 150.519,48.675C150.416,51.019 150.022,52.284 149.694,53.128C149.263,54.244 148.737,55.05 147.903,55.884C147.059,56.728 146.263,57.244 145.147,57.675C144.303,58.003 143.028,58.397 140.694,58.5C138.163,58.612 137.403,58.641 131,58.641C124.588,58.641 123.828,58.612 121.306,58.5C118.963,58.397 117.697,58.003 116.853,57.675C115.738,57.244 114.931,56.719 114.097,55.884C113.253,55.041 112.738,54.244 112.306,53.128C111.978,52.284 111.584,51.009 111.481,48.675C111.369,46.144 111.341,45.384 111.341,38.981C111.341,32.569 111.369,31.809 111.481,29.288C111.584,26.944 111.978,25.678 112.306,24.834C112.738,23.719 113.263,22.913 114.097,22.078C114.941,21.234 115.738,20.719 116.853,20.288C117.697,19.959 118.972,19.566 121.306,19.462C123.828,19.35 124.588,19.322 131,19.322ZM131,15C124.484,15 123.669,15.028 121.109,15.141C118.559,15.253 116.806,15.666 115.288,16.256C113.703,16.875 112.363,17.691 111.031,19.031C109.691,20.363 108.875,21.703 108.256,23.278C107.666,24.806 107.253,26.55 107.141,29.1C107.028,31.669 107,32.484 107,39C107,45.516 107.028,46.331 107.141,48.891C107.253,51.441 107.666,53.194 108.256,54.713C108.875,56.297 109.691,57.638 111.031,58.969C112.363,60.3 113.703,61.125 115.278,61.734C116.806,62.325 118.55,62.737 121.1,62.85C123.659,62.963 124.475,62.991 130.991,62.991C137.506,62.991 138.322,62.963 140.881,62.85C143.431,62.737 145.184,62.325 146.703,61.734C148.278,61.125 149.619,60.3 150.95,58.969C152.281,57.638 153.106,56.297 153.716,54.722C154.306,53.194 154.719,51.45 154.831,48.9C154.944,46.341 154.972,45.525 154.972,39.009C154.972,32.494 154.944,31.678 154.831,29.119C154.719,26.569 154.306,24.816 153.716,23.297C153.125,21.703 152.309,20.363 150.969,19.031C149.638,17.7 148.297,16.875 146.722,16.266C145.194,15.675 143.45,15.262 140.9,15.15C138.331,15.028 137.516,15 131,15Z" style="fill:white;fill-rule:nonzero;"/>
                <path d="M131,26.672C124.194,26.672 118.672,32.194 118.672,39C118.672,45.806 124.194,51.328 131,51.328C137.806,51.328 143.328,45.806 143.328,39C143.328,32.194 137.806,26.672 131,26.672ZM131,46.997C126.584,46.997 123.003,43.416 123.003,39C123.003,34.584 126.584,31.003 131,31.003C135.416,31.003 138.997,34.584 138.997,39C138.997,43.416 135.416,46.997 131,46.997Z" style="fill:white;fill-rule:nonzero;"/>
            </g>
            <path d="M146.694,26.184C146.694,27.778 145.4,29.062 143.816,29.062C142.222,29.062 140.938,27.769 140.938,26.184C140.938,24.59 142.231,23.306 143.816,23.306C145.4,23.306 146.694,24.6 146.694,26.184Z" style="fill:white;fill-rule:nonzero;"/>
        </g>
    </g>
</svg>
