<?xml version="1.0" encoding="UTF-8" standalone="no"?>
<!DOCTYPE svg PUBLIC "-//W3C//DTD SVG 1.1//EN" "http://www.w3.org/Graphics/SVG/1.1/DTD/svg11.dtd">
<svg width="100%" height="100%" viewBox="0 0 24 24" version="1.1" xmlns="http://www.w3.org/2000/svg" xmlns:xlink="http://www.w3.org/1999/xlink" xml:space="preserve" xmlns:serif="http://www.serif.com/" style="fill-rule:evenodd;clip-rule:evenodd;stroke-linejoin:round;stroke-miterlimit:2;">
    <g transform="matrix(1,0,0,1,-321,-15)">
        <g transform="matrix(0.5,0,0,0.5,160.5,7.5)">
            <path d="M345,15C331.74,15 321,25.744 321,39C321,49.172 327.33,57.853 336.25,61.35C336.05,59.447 335.85,56.541 336.34,54.469C336.78,52.594 339.15,42.544 339.15,42.544C339.15,42.544 338.43,41.109 338.43,38.981C338.43,35.644 340.36,33.15 342.77,33.15C344.81,33.15 345.81,34.688 345.81,36.534C345.81,38.597 344.49,41.672 343.82,44.522C343.26,46.913 345.02,48.862 347.37,48.862C351.64,48.862 354.92,44.362 354.92,37.875C354.92,32.128 350.79,28.106 344.9,28.106C338.07,28.106 334.06,33.225 334.06,38.522C334.06,40.584 334.86,42.797 335.85,43.997C336.05,44.231 336.07,44.447 336.02,44.681C335.84,45.441 335.43,47.072 335.35,47.4C335.25,47.841 335.01,47.934 334.55,47.719C331.55,46.322 329.67,41.944 329.67,38.419C329.67,30.844 335.18,23.897 345.53,23.897C353.85,23.897 360.32,29.831 360.32,37.763C360.32,46.031 355.11,52.688 347.87,52.688C345.44,52.688 343.15,51.422 342.37,49.931C342.37,49.931 341.17,54.516 340.88,55.641C340.33,57.722 338.87,60.338 337.89,61.931C340.14,62.625 342.52,63 345,63C358.26,63 369,52.256 369,39C369,25.744 358.26,15 345,15Z" style="fill:white;fill-rule:nonzero;"/>
        </g>
    </g>
</svg>
