<svg width="599" height="78" viewBox="0 0 599 78" fill="none" xmlns="http://www.w3.org/2000/svg">
<path d="M15.1 58.0014C33.209 58.0014 43.117 42.9949 43.117 29.9852C43.117 29.5633 43.107 29.1321 43.088 28.7102C45.016 27.3164 46.679 25.59 48 23.6121C46.205 24.4107 44.299 24.9322 42.348 25.1589C44.403 23.9273 45.941 21.9924 46.678 19.713C44.745 20.8586 42.631 21.6667 40.427 22.1027C38.942 20.5246 36.978 19.4797 34.839 19.1296C32.701 18.7794 30.506 19.1436 28.595 20.1657C26.685 21.1878 25.164 22.8109 24.268 24.7841C23.372 26.7573 23.151 28.9707 23.639 31.0821C19.725 30.8856 15.896 29.8689 12.4 28.0977C8.90399 26.3264 5.81899 23.8403 3.34599 20.8005C2.08899 22.968 1.704 25.5328 2.27 27.9736C2.836 30.4145 4.31001 32.5484 6.39301 33.9414C4.82901 33.8918 3.3 33.4708 1.931 32.7133V32.8352C1.93 35.1098 2.716 37.3146 4.157 39.075C5.597 40.8354 7.603 42.0426 9.832 42.4914C8.384 42.8877 6.864 42.9455 5.39 42.6602C6.019 44.6163 7.243 46.3272 8.892 47.5541C10.54 48.781 12.53 49.4627 14.585 49.5039C11.097 52.2437 6.788 53.7297 2.353 53.7227C1.567 53.7215 0.781 53.6733 0 53.5783C4.506 56.469 9.74701 58.0042 15.1 58.0014Z" fill="white"/>
<path d="M131 19.3219C137.413 19.3219 138.172 19.35 140.694 19.4625C143.038 19.5656 144.303 19.9594 145.147 20.2875C146.263 20.7188 147.069 21.2438 147.903 22.0781C148.747 22.9219 149.263 23.7188 149.694 24.8344C150.022 25.6781 150.416 26.9531 150.519 29.2875C150.631 31.8187 150.659 32.5781 150.659 38.9813C150.659 45.3938 150.631 46.1531 150.519 48.675C150.416 51.0188 150.022 52.2844 149.694 53.1281C149.263 54.2438 148.737 55.05 147.903 55.8844C147.059 56.7281 146.263 57.2438 145.147 57.675C144.303 58.0031 143.028 58.3969 140.694 58.5C138.163 58.6125 137.403 58.6406 131 58.6406C124.588 58.6406 123.828 58.6125 121.306 58.5C118.963 58.3969 117.697 58.0031 116.853 57.675C115.738 57.2438 114.931 56.7188 114.097 55.8844C113.253 55.0406 112.738 54.2438 112.306 53.1281C111.978 52.2844 111.584 51.0094 111.481 48.675C111.369 46.1438 111.341 45.3844 111.341 38.9813C111.341 32.5688 111.369 31.8094 111.481 29.2875C111.584 26.9437 111.978 25.6781 112.306 24.8344C112.738 23.7188 113.263 22.9125 114.097 22.0781C114.941 21.2344 115.738 20.7188 116.853 20.2875C117.697 19.9594 118.972 19.5656 121.306 19.4625C123.828 19.35 124.588 19.3219 131 19.3219ZM131 15C124.484 15 123.669 15.0281 121.109 15.1406C118.559 15.2531 116.806 15.6656 115.288 16.2563C113.703 16.875 112.363 17.6906 111.031 19.0312C109.691 20.3625 108.875 21.7031 108.256 23.2781C107.666 24.8062 107.253 26.55 107.141 29.1C107.028 31.6687 107 32.4844 107 39C107 45.5156 107.028 46.3312 107.141 48.8906C107.253 51.4406 107.666 53.1938 108.256 54.7125C108.875 56.2969 109.691 57.6375 111.031 58.9688C112.363 60.3 113.703 61.125 115.278 61.7344C116.806 62.325 118.55 62.7375 121.1 62.85C123.659 62.9625 124.475 62.9906 130.991 62.9906C137.506 62.9906 138.322 62.9625 140.881 62.85C143.431 62.7375 145.184 62.325 146.703 61.7344C148.278 61.125 149.619 60.3 150.95 58.9688C152.281 57.6375 153.106 56.2969 153.716 54.7219C154.306 53.1938 154.719 51.45 154.831 48.9C154.944 46.3406 154.972 45.525 154.972 39.0094C154.972 32.4938 154.944 31.6781 154.831 29.1188C154.719 26.5688 154.306 24.8156 153.716 23.2969C153.125 21.7031 152.309 20.3625 150.969 19.0312C149.638 17.7 148.297 16.875 146.722 16.2656C145.194 15.675 143.45 15.2625 140.9 15.15C138.331 15.0281 137.516 15 131 15Z" fill="white"/>
<path d="M131 26.6719C124.194 26.6719 118.672 32.1938 118.672 39C118.672 45.8062 124.194 51.3281 131 51.3281C137.806 51.3281 143.328 45.8062 143.328 39C143.328 32.1938 137.806 26.6719 131 26.6719ZM131 46.9969C126.584 46.9969 123.003 43.4156 123.003 39C123.003 34.5844 126.584 31.0031 131 31.0031C135.416 31.0031 138.997 34.5844 138.997 39C138.997 43.4156 135.416 46.9969 131 46.9969Z" fill="white"/>
<path d="M146.694 26.1843C146.694 27.778 145.4 29.0624 143.816 29.0624C142.222 29.0624 140.938 27.7687 140.938 26.1843C140.938 24.5905 142.231 23.3062 143.816 23.3062C145.4 23.3062 146.694 24.5999 146.694 26.1843Z" fill="white"/>
<path d="M261.522 29.2844C261.522 29.2844 261.053 25.975 259.609 24.5219C257.781 22.6094 255.738 22.6 254.8 22.4875C248.088 22 238.009 22 238.009 22H237.991C237.991 22 227.913 22 221.2 22.4875C220.263 22.6 218.219 22.6094 216.391 24.5219C214.947 25.975 214.487 29.2844 214.487 29.2844C214.487 29.2844 214 33.175 214 37.0563V40.6938C214 44.575 214.478 48.4656 214.478 48.4656C214.478 48.4656 214.947 51.775 216.381 53.2281C218.209 55.1406 220.609 55.075 221.678 55.2813C225.522 55.6469 238 55.7594 238 55.7594C238 55.7594 248.088 55.7406 254.8 55.2625C255.738 55.15 257.781 55.1406 259.609 53.2281C261.053 51.775 261.522 48.4656 261.522 48.4656C261.522 48.4656 262 44.5844 262 40.6938V37.0563C262 33.175 261.522 29.2844 261.522 29.2844ZM233.041 45.1094V31.6188L246.006 38.3875L233.041 45.1094Z" fill="white"/>
<path d="M345 15C331.74 15 321 25.7438 321 39C321 49.1719 327.33 57.8531 336.25 61.35C336.05 59.4469 335.85 56.5406 336.34 54.4688C336.78 52.5938 339.15 42.5437 339.15 42.5437C339.15 42.5437 338.43 41.1094 338.43 38.9813C338.43 35.6438 340.36 33.15 342.77 33.15C344.81 33.15 345.81 34.6875 345.81 36.5344C345.81 38.5969 344.49 41.6719 343.82 44.5219C343.26 46.9125 345.02 48.8625 347.37 48.8625C351.64 48.8625 354.92 44.3625 354.92 37.875C354.92 32.1281 350.79 28.1063 344.9 28.1063C338.07 28.1063 334.06 33.225 334.06 38.5219C334.06 40.5844 334.86 42.7969 335.85 43.9969C336.05 44.2312 336.07 44.4469 336.02 44.6813C335.84 45.4406 335.43 47.0719 335.35 47.4C335.25 47.8406 335.01 47.9344 334.55 47.7188C331.55 46.3219 329.67 41.9438 329.67 38.4188C329.67 30.8438 335.18 23.8969 345.53 23.8969C353.85 23.8969 360.32 29.8313 360.32 37.7625C360.32 46.0312 355.11 52.6875 347.87 52.6875C345.44 52.6875 343.15 51.4219 342.37 49.9313C342.37 49.9313 341.17 54.5156 340.88 55.6406C340.33 57.7219 338.87 60.3375 337.89 61.9313C340.14 62.625 342.52 63 345 63C358.26 63 369 52.2562 369 39C369 25.7438 358.26 15 345 15Z" fill="white"/>
<path fill-rule="evenodd" clip-rule="evenodd" d="M452 15C438.75 15 428 25.7505 428 39C428 52.2495 438.75 63 452 63C465.22 63 476 52.2495 476 39C476 25.7505 465.22 15 452 15ZM467.85 26.0629C470.72 29.551 472.43 34.0021 472.49 38.8177C471.81 38.6877 465.04 37.308 458.22 38.167C458.07 37.8286 457.93 37.4641 457.78 37.0998C457.36 36.1107 456.89 35.0955 456.43 34.1324C463.97 31.0608 467.41 26.6356 467.85 26.0629ZM452 18.5401C457.21 18.5401 461.97 20.4924 465.59 23.6941C465.22 24.2148 462.13 28.3536 454.84 31.0868C451.48 24.9176 447.76 19.8677 447.18 19.0868C448.72 18.7223 450.33 18.5401 452 18.5401ZM443.28 20.4664C443.83 21.1952 447.47 26.2712 450.88 32.3102C441.3 34.8612 432.84 34.8092 431.93 34.8092C433.26 28.4577 437.55 23.1735 443.28 20.4664ZM431.49 39.0261C431.49 38.8178 431.49 38.6096 431.49 38.4014C432.37 38.4273 442.32 38.5575 452.55 35.486C453.15 36.6312 453.69 37.8026 454.21 38.9739C453.95 39.052 453.67 39.1302 453.41 39.2082C442.84 42.6181 437.21 51.937 436.75 52.7179C433.49 49.0998 431.49 44.2842 431.49 39.0261ZM452 59.5119C447.26 59.5119 442.89 57.898 439.43 55.1908C439.79 54.4361 443.96 46.4187 455.51 42.384C455.57 42.3579 455.59 42.3579 455.64 42.332C458.53 49.8026 459.71 56.0759 460.02 57.872C457.54 58.9392 454.84 59.5119 452 59.5119ZM463.43 55.9978C463.22 54.7483 462.13 48.7614 459.44 41.3948C465.87 40.3796 471.5 42.0456 472.2 42.2799C471.31 47.9805 468.03 52.9002 463.43 55.9978Z" fill="white"/>
<path d="M588.333 17.6667H545.666C542.733 17.6667 540.36 20.0667 540.36 23.0001L540.333 55.0001C540.333 57.9334 542.733 60.3334 545.666 60.3334H588.333C591.266 60.3334 593.666 57.9334 593.666 55.0001V23.0001C593.666 20.0667 591.266 17.6667 588.333 17.6667ZM588.333 28.3334L567 41.6667L545.666 28.3334V23.0001L567 36.3334L588.333 23.0001V28.3334Z" fill="white"/>
</svg>
