<?xml version="1.0" encoding="UTF-8" standalone="no"?>
<!DOCTYPE svg PUBLIC "-//W3C//DTD SVG 1.1//EN" "http://www.w3.org/Graphics/SVG/1.1/DTD/svg11.dtd">
<svg width="100%" height="100%" viewBox="0 0 24 24" version="1.1" xmlns="http://www.w3.org/2000/svg" xmlns:xlink="http://www.w3.org/1999/xlink" xml:space="preserve" xmlns:serif="http://www.serif.com/" style="fill-rule:evenodd;clip-rule:evenodd;stroke-linejoin:round;stroke-miterlimit:2;">
    <g transform="matrix(1,0,0,1,-15.552,-36.8668)">
        <g transform="matrix(0.568731,0,0,0.805022,-12.4089,23.3666)">
            <rect x="49.164" y="16.77" width="42.199" height="29.813" style="fill:none;"/>
        </g>
        <g transform="matrix(0.5,0,0,0.474342,15.552,30.6043)">
            <path d="M15.1,58.001C33.209,58.001 43.117,42.995 43.117,29.985C43.117,29.563 43.107,29.132 43.088,28.71C45.016,27.316 46.679,25.59 48,23.612C46.205,24.411 44.299,24.932 42.348,25.159C44.403,23.927 45.941,21.992 46.678,19.713C44.745,20.859 42.631,21.667 40.427,22.103C38.942,20.525 36.978,19.48 34.839,19.13C32.701,18.779 30.506,19.144 28.595,20.166C26.685,21.188 25.164,22.811 24.268,24.784C23.372,26.757 23.151,28.971 23.639,31.082C19.725,30.886 15.896,29.869 12.4,28.098C8.904,26.326 5.819,23.84 3.346,20.801C2.089,22.968 1.704,25.533 2.27,27.974C2.836,30.415 4.31,32.548 6.393,33.941C4.829,33.892 3.3,33.471 1.931,32.713L1.931,32.835C1.93,35.11 2.716,37.315 4.157,39.075C5.597,40.835 7.603,42.043 9.832,42.491C8.384,42.888 6.864,42.946 5.39,42.66C6.019,44.616 7.243,46.327 8.892,47.554C10.54,48.781 12.53,49.463 14.585,49.504C11.097,52.244 6.788,53.73 2.353,53.723C1.567,53.722 0.781,53.673 0,53.578C4.506,56.469 9.747,58.004 15.1,58.001Z" style="fill:white;fill-rule:nonzero;"/>
        </g>
    </g>
</svg>
