<?xml version="1.0" encoding="UTF-8" standalone="no"?>
<!DOCTYPE svg PUBLIC "-//W3C//DTD SVG 1.1//EN" "http://www.w3.org/Graphics/SVG/1.1/DTD/svg11.dtd">
<svg width="100%" height="100%" viewBox="0 0 25 25" version="1.1" xmlns="http://www.w3.org/2000/svg" xmlns:xlink="http://www.w3.org/1999/xlink" xml:space="preserve" xmlns:serif="http://www.serif.com/" style="fill-rule:evenodd;clip-rule:evenodd;stroke-linejoin:round;stroke-miterlimit:2;">
    <g transform="matrix(1,0,0,1,-15.552,-36.8668)">
        <g transform="matrix(0.568731,0,0,0.805022,-12.4089,23.3666)">
            <rect x="49.164" y="16.77" width="42.199" height="29.813" style="fill:none;"/>
        </g>
        <g transform="matrix(0.5,0,0,0.5,-91.448,29.427)">
            <path d="M261.522,29.284C261.522,29.284 261.053,25.975 259.609,24.522C257.781,22.609 255.738,22.6 254.8,22.488C248.088,22 238.009,22 238.009,22L237.991,22C237.991,22 227.913,22 221.2,22.488C220.263,22.6 218.219,22.609 216.391,24.522C214.947,25.975 214.487,29.284 214.487,29.284C214.487,29.284 214,33.175 214,37.056L214,40.694C214,44.575 214.478,48.466 214.478,48.466C214.478,48.466 214.947,51.775 216.381,53.228C218.209,55.141 220.609,55.075 221.678,55.281C225.522,55.647 238,55.759 238,55.759C238,55.759 248.088,55.741 254.8,55.263C255.738,55.15 257.781,55.141 259.609,53.228C261.053,51.775 261.522,48.466 261.522,48.466C261.522,48.466 262,44.584 262,40.694L262,37.056C262,33.175 261.522,29.284 261.522,29.284ZM233.041,45.109L233.041,31.619L246.006,38.388L233.041,45.109Z" style="fill:white;fill-rule:nonzero;"/>
        </g>
    </g>
</svg>
