<?xml version="1.0" encoding="UTF-8" standalone="no"?>
<!DOCTYPE svg PUBLIC "-//W3C//DTD SVG 1.1//EN" "http://www.w3.org/Graphics/SVG/1.1/DTD/svg11.dtd">
<svg width="100%" height="100%" viewBox="0 0 599 78" version="1.1" xmlns="http://www.w3.org/2000/svg" xmlns:xlink="http://www.w3.org/1999/xlink" xml:space="preserve" xmlns:serif="http://www.serif.com/" style="fill-rule:evenodd;clip-rule:evenodd;stroke-linejoin:round;stroke-miterlimit:2;">
    <g transform="matrix(0.568731,0,0,0.805022,-12.4089,23.3666)">
        <rect x="49.164" y="16.77" width="42.199" height="29.813" style="fill:none;"/>
    </g>
    <g transform="matrix(0.500292,0,0,0.500292,39.5435,9.55609)">
        <g>
            <path d="M131,19.322C137.413,19.322 138.172,19.35 140.694,19.462C143.038,19.566 144.303,19.959 145.147,20.288C146.263,20.719 147.069,21.244 147.903,22.078C148.747,22.922 149.263,23.719 149.694,24.834C150.022,25.678 150.416,26.953 150.519,29.288C150.631,31.819 150.659,32.578 150.659,38.981C150.659,45.394 150.631,46.153 150.519,48.675C150.416,51.019 150.022,52.284 149.694,53.128C149.263,54.244 148.737,55.05 147.903,55.884C147.059,56.728 146.263,57.244 145.147,57.675C144.303,58.003 143.028,58.397 140.694,58.5C138.163,58.612 137.403,58.641 131,58.641C124.588,58.641 123.828,58.612 121.306,58.5C118.963,58.397 117.697,58.003 116.853,57.675C115.738,57.244 114.931,56.719 114.097,55.884C113.253,55.041 112.738,54.244 112.306,53.128C111.978,52.284 111.584,51.009 111.481,48.675C111.369,46.144 111.341,45.384 111.341,38.981C111.341,32.569 111.369,31.809 111.481,29.288C111.584,26.944 111.978,25.678 112.306,24.834C112.738,23.719 113.263,22.913 114.097,22.078C114.941,21.234 115.738,20.719 116.853,20.288C117.697,19.959 118.972,19.566 121.306,19.462C123.828,19.35 124.588,19.322 131,19.322ZM131,15C124.484,15 123.669,15.028 121.109,15.141C118.559,15.253 116.806,15.666 115.288,16.256C113.703,16.875 112.363,17.691 111.031,19.031C109.691,20.363 108.875,21.703 108.256,23.278C107.666,24.806 107.253,26.55 107.141,29.1C107.028,31.669 107,32.484 107,39C107,45.516 107.028,46.331 107.141,48.891C107.253,51.441 107.666,53.194 108.256,54.713C108.875,56.297 109.691,57.638 111.031,58.969C112.363,60.3 113.703,61.125 115.278,61.734C116.806,62.325 118.55,62.737 121.1,62.85C123.659,62.963 124.475,62.991 130.991,62.991C137.506,62.991 138.322,62.963 140.881,62.85C143.431,62.737 145.184,62.325 146.703,61.734C148.278,61.125 149.619,60.3 150.95,58.969C152.281,57.638 153.106,56.297 153.716,54.722C154.306,53.194 154.719,51.45 154.831,48.9C154.944,46.341 154.972,45.525 154.972,39.009C154.972,32.494 154.944,31.678 154.831,29.119C154.719,26.569 154.306,24.816 153.716,23.297C153.125,21.703 152.309,20.363 150.969,19.031C149.638,17.7 148.297,16.875 146.722,16.266C145.194,15.675 143.45,15.262 140.9,15.15C138.331,15.028 137.516,15 131,15Z" style="fill:white;fill-rule:nonzero;"/>
            <path d="M131,26.672C124.194,26.672 118.672,32.194 118.672,39C118.672,45.806 124.194,51.328 131,51.328C137.806,51.328 143.328,45.806 143.328,39C143.328,32.194 137.806,26.672 131,26.672ZM131,46.997C126.584,46.997 123.003,43.416 123.003,39C123.003,34.584 126.584,31.003 131,31.003C135.416,31.003 138.997,34.584 138.997,39C138.997,43.416 135.416,46.997 131,46.997Z" style="fill:white;fill-rule:nonzero;"/>
        </g>
        <path d="M146.694,26.184C146.694,27.778 145.4,29.062 143.816,29.062C142.222,29.062 140.938,27.769 140.938,26.184C140.938,24.59 142.231,23.306 143.816,23.306C145.4,23.306 146.694,24.6 146.694,26.184Z" style="fill:white;fill-rule:nonzero;"/>
    </g>
    <g transform="matrix(0.5,0,0,0.5,-91.448,29.427)">
        <path d="M261.522,29.284C261.522,29.284 261.053,25.975 259.609,24.522C257.781,22.609 255.738,22.6 254.8,22.488C248.088,22 238.009,22 238.009,22L237.991,22C237.991,22 227.913,22 221.2,22.488C220.263,22.6 218.219,22.609 216.391,24.522C214.947,25.975 214.487,29.284 214.487,29.284C214.487,29.284 214,33.175 214,37.056L214,40.694C214,44.575 214.478,48.466 214.478,48.466C214.478,48.466 214.947,51.775 216.381,53.228C218.209,55.141 220.609,55.075 221.678,55.281C225.522,55.647 238,55.759 238,55.759C238,55.759 248.088,55.741 254.8,55.263C255.738,55.15 257.781,55.141 259.609,53.228C261.053,51.775 261.522,48.466 261.522,48.466C261.522,48.466 262,44.584 262,40.694L262,37.056C262,33.175 261.522,29.284 261.522,29.284ZM233.041,45.109L233.041,31.619L246.006,38.388L233.041,45.109Z" style="fill:white;fill-rule:nonzero;"/>
    </g>
    <g transform="matrix(0.5,0,0,0.5,160.5,7.5)">
        <path d="M345,15C331.74,15 321,25.744 321,39C321,49.172 327.33,57.853 336.25,61.35C336.05,59.447 335.85,56.541 336.34,54.469C336.78,52.594 339.15,42.544 339.15,42.544C339.15,42.544 338.43,41.109 338.43,38.981C338.43,35.644 340.36,33.15 342.77,33.15C344.81,33.15 345.81,34.688 345.81,36.534C345.81,38.597 344.49,41.672 343.82,44.522C343.26,46.913 345.02,48.862 347.37,48.862C351.64,48.862 354.92,44.362 354.92,37.875C354.92,32.128 350.79,28.106 344.9,28.106C338.07,28.106 334.06,33.225 334.06,38.522C334.06,40.584 334.86,42.797 335.85,43.997C336.05,44.231 336.07,44.447 336.02,44.681C335.84,45.441 335.43,47.072 335.35,47.4C335.25,47.841 335.01,47.934 334.55,47.719C331.55,46.322 329.67,41.944 329.67,38.419C329.67,30.844 335.18,23.897 345.53,23.897C353.85,23.897 360.32,29.831 360.32,37.763C360.32,46.031 355.11,52.688 347.87,52.688C345.44,52.688 343.15,51.422 342.37,49.931C342.37,49.931 341.17,54.516 340.88,55.641C340.33,57.722 338.87,60.338 337.89,61.931C340.14,62.625 342.52,63 345,63C358.26,63 369,52.256 369,39C369,25.744 358.26,15 345,15Z" style="fill:white;fill-rule:nonzero;"/>
    </g>
    <g transform="matrix(0.5,0,0,0.5,214,7.5)">
        <path d="M452,15C438.75,15 428,25.751 428,39C428,52.25 438.75,63 452,63C465.22,63 476,52.25 476,39C476,25.751 465.22,15 452,15ZM467.85,26.063C470.72,29.551 472.43,34.002 472.49,38.818C471.81,38.688 465.04,37.308 458.22,38.167C458.07,37.829 457.93,37.464 457.78,37.1C457.36,36.111 456.89,35.096 456.43,34.132C463.97,31.061 467.41,26.636 467.85,26.063ZM452,18.54C457.21,18.54 461.97,20.492 465.59,23.694C465.22,24.215 462.13,28.354 454.84,31.087C451.48,24.918 447.76,19.868 447.18,19.087C448.72,18.722 450.33,18.54 452,18.54ZM443.28,20.466C443.83,21.195 447.47,26.271 450.88,32.31C441.3,34.861 432.84,34.809 431.93,34.809C433.26,28.458 437.55,23.174 443.28,20.466ZM431.49,39.026L431.49,38.401C432.37,38.427 442.32,38.558 452.55,35.486C453.15,36.631 453.69,37.803 454.21,38.974C453.95,39.052 453.67,39.13 453.41,39.208C442.84,42.618 437.21,51.937 436.75,52.718C433.49,49.1 431.49,44.284 431.49,39.026ZM452,59.512C447.26,59.512 442.89,57.898 439.43,55.191C439.79,54.436 443.96,46.419 455.51,42.384C455.57,42.358 455.59,42.358 455.64,42.332C458.53,49.803 459.71,56.076 460.02,57.872C457.54,58.939 454.84,59.512 452,59.512ZM463.43,55.998C463.22,54.748 462.13,48.761 459.44,41.395C465.87,40.38 471.5,42.046 472.2,42.28C471.31,47.981 468.03,52.9 463.43,55.998Z" style="fill:white;"/>
    </g>
    <g transform="matrix(0.450003,0,0,0.450003,297.182,9.71664)">
        <path d="M588.333,17.667L545.666,17.667C542.733,17.667 540.36,20.067 540.36,23L540.333,55C540.333,57.933 542.733,60.333 545.666,60.333L588.333,60.333C591.266,60.333 593.666,57.933 593.666,55L593.666,23C593.666,20.067 591.266,17.667 588.333,17.667ZM588.333,28.333L567,41.667L545.666,28.333L545.666,23L567,36.333L588.333,23L588.333,28.333Z" style="fill:white;fill-rule:nonzero;"/>
    </g>
</svg>
